<svg width="20" height="22" viewBox="0 0 20 22" fill="none" xmlns="http://www.w3.org/2000/svg">
<path d="M10 10.3529C12.7614 10.3529 15 8.03536 15 5.17647C15 2.31758 12.7614 0 10 0C7.23858 0 5 2.31758 5 5.17647C5 8.03536 7.23858 10.3529 10 10.3529Z" fill="#3373C8"/>
<path d="M20 19.4118V20.7059C20 21.0491 19.8683 21.3783 19.6339 21.621C19.3995 21.8637 19.0815 22 18.75 22H1.25C0.918479 22 0.600537 21.8637 0.366117 21.621C0.131696 21.3783 0 21.0491 0 20.7059V19.4118C0 17.3524 0.790177 15.3775 2.1967 13.9213C3.60322 12.4651 5.51088 11.6471 7.5 11.6471H12.5C14.4891 11.6471 16.3968 12.4651 17.8033 13.9213C19.2098 15.3775 20 17.3524 20 19.4118Z" fill="#3373C8"/>
</svg>
