<svg width="22" height="22" viewBox="0 0 22 22" fill="none" xmlns="http://www.w3.org/2000/svg">
<path d="M11 0C11 0 4.1954 6.52667 0.3927 10.0613C0.1694 10.2862 0 10.6138 0 11C0 11.6759 0.4917 12.2222 1.1 12.2222H3.3V20.7778C3.3 21.4537 3.7917 22 4.4 22H7.7C8.3083 22 8.8 21.4524 8.8 20.7778V15.8889H13.2V20.7778C13.2 21.4524 13.6917 22 14.3 22H17.6C18.2083 22 18.7 21.4537 18.7 20.7778V12.2222H20.9C21.5083 12.2222 22 11.6759 22 11C22 10.6138 21.8306 10.2862 21.5787 10.0613C17.8024 6.52667 11 0 11 0Z" fill="#002352"/>
</svg>
