<svg width="25" height="24" viewBox="0 0 25 24" fill="none" xmlns="http://www.w3.org/2000/svg">
<path d="M5.50934 21C4.95934 21 4.48851 20.8042 4.09684 20.4125C3.70517 20.0208 3.50934 19.55 3.50934 19V5C3.50934 4.45 3.70517 3.97917 4.09684 3.5875C4.48851 3.19583 4.95934 3 5.50934 3H12.5093V5H5.50934V19H19.5093V12H21.5093V19C21.5093 19.55 21.3135 20.0208 20.9218 20.4125C20.5302 20.8042 20.0593 21 19.5093 21H5.50934ZM10.2093 15.7L8.80934 14.3L18.1093 5H14.5093V3H21.5093V10H19.5093V6.4L10.2093 15.7Z" fill="#002352"/>
</svg>
